# Blender v2.79 (sub 0) OBJ File: ''
# www.blender.org
mtllib 1958.206.1.mtl
o 1958.206.1_print_edit
v -1.920226 -0.881545 0.070497
v 1.917342 -0.881545 0.076799
v -1.920226 0.881546 0.070497
v 1.917342 0.881545 0.076799
v -1.269910 0.881546 -0.102313
v -1.271703 -0.881545 -0.101837
v -0.635412 -0.881545 0.072396
v -0.635412 0.881545 0.072396
v -0.001389 0.881545 -0.097150
v 0.003391 -0.881545 -0.098420
v 0.633725 0.881545 0.075495
v 0.639091 -0.881545 0.076944
v 1.269072 0.881545 -0.095355
v 1.274315 -0.881545 -0.096748
v -1.924753 -0.881545 0.053458
v 1.921902 -0.881532 0.059769
v -1.924753 0.881546 0.053458
v 1.921902 0.881558 0.059769
v -1.269835 0.881543 -0.119944
v -1.271633 -0.881548 -0.119468
v -0.635353 -0.881548 0.054765
v -0.635353 0.881543 0.054765
v -0.001344 0.881552 -0.114780
v 0.003452 -0.881539 -0.116051
v 0.633757 0.881545 0.057864
v 0.639104 -0.881546 0.059313
v 1.269035 0.881545 -0.112985
v 1.274296 -0.881545 -0.114379
vt 0.168900 0.000000
vt 0.000000 1.000000
vt 0.000000 0.000000
vt 0.169367 1.000000
vt 0.334800 0.000000
vt 0.334800 1.000000
vt 0.499922 1.000000
vt 0.501167 0.000000
vt 0.665513 1.000000
vt 0.666912 0.000000
vt 0.830980 1.000000
vt 0.832345 0.000000
vt 1.000000 1.000000
vt 0.000000 1.000000
vt 0.168900 0.000000
vt 0.000000 0.000000
vt 0.169367 1.000000
vt 0.334800 0.000000
vt 0.499922 1.000000
vt 0.334800 1.000000
vt 0.665513 1.000000
vt 0.501167 0.000000
vt 0.830980 1.000000
vt 0.666912 0.000000
vt 1.000000 1.000000
vt 0.832345 0.000000
vt 1.000000 0.000000
vt 1.000000 0.000000
vn 0.2568 -0.0000 0.9665
vn -0.2655 0.0000 0.9641
vn 0.2583 0.0000 0.9661
vn -0.2623 -0.0014 0.9650
vn 0.2597 0.0016 0.9657
vn -0.2567 -0.0015 0.9665
vn -0.2559 0.0000 -0.9667
vn 0.2641 -0.0005 -0.9645
vn -0.2583 -0.0000 -0.9661
vn 0.2623 0.0014 -0.9650
vn -0.2597 -0.0016 -0.9657
vn 0.2558 0.0015 -0.9667
vn -0.9665 0.0000 0.2568
vn 0.0002 -1.0000 -0.0007
vn 0.9660 0.0000 0.2586
vn 0.0000 1.0000 0.0000
vn 0.0000 1.0000 -0.0001
vn 0.0000 -1.0000 0.0001
vn -0.0001 1.0000 0.0004
vn -0.0001 -1.0000 -0.0004
vn -0.0000 -1.0000 0.0000
vn -0.2641 0.0005 0.9645
vn -0.2659 -0.0000 0.9640
vn 0.2638 0.0000 0.9646
vn 0.2655 -0.0000 -0.9641
vn 0.2659 0.0000 -0.9640
vn -0.2638 -0.0000 -0.9646
vn 0.0001 1.0000 0.0004
vn 0.0001 -1.0000 -0.0004
vn -0.2606 -0.0000 0.9655
vn 0.2597 0.0000 -0.9657
vn -0.0002 1.0000 0.0007
usemtl 1958.206.1_print_edit
s off
f 6/1/1 3/2/1 1/3/1
f 5/4/2 7/5/2 8/6/2
f 7/5/3 9/7/3 8/6/3
f 10/8/4 11/9/4 9/7/4
f 12/10/5 13/11/5 11/9/5
f 14/12/6 4/13/6 13/11/6
f 17/14/7 20/15/7 15/16/7
f 19/17/8 21/18/8 20/15/8
f 23/19/9 21/18/9 22/20/9
f 25/21/10 24/22/10 23/19/10
f 27/23/11 26/24/11 25/21/11
f 18/25/12 28/26/12 27/23/12
f 3/2/13 15/16/13 1/3/13
f 14/12/14 16/27/14 2/28/14
f 4/13/15 16/27/15 18/25/15
f 5/4/16 17/14/16 3/2/16
f 5/4/17 22/20/17 19/17/17
f 6/1/18 15/16/18 20/15/18
f 6/1/18 21/18/18 7/5/18
f 9/7/17 22/20/17 8/6/17
f 9/7/19 25/21/19 23/19/19
f 10/8/20 21/18/20 24/22/20
f 13/11/16 25/21/16 11/9/16
f 10/8/21 26/24/21 12/10/21
f 13/11/16 18/25/16 27/23/16
f 14/12/21 26/24/21 28/26/21
f 6/1/1 5/4/1 3/2/1
f 5/4/22 6/1/22 7/5/22
f 7/5/3 10/8/3 9/7/3
f 10/8/23 12/10/23 11/9/23
f 12/10/24 14/12/24 13/11/24
f 17/14/7 19/17/7 20/15/7
f 19/17/25 22/20/25 21/18/25
f 23/19/9 24/22/9 21/18/9
f 25/21/26 26/24/26 24/22/26
f 27/23/27 28/26/27 26/24/27
f 3/2/13 17/14/13 15/16/13
f 5/4/17 19/17/17 17/14/17
f 5/4/17 8/6/17 22/20/17
f 6/1/21 1/3/21 15/16/21
f 6/1/18 20/15/18 21/18/18
f 9/7/28 23/19/28 22/20/28
f 9/7/16 11/9/16 25/21/16
f 10/8/18 7/5/18 21/18/18
f 13/11/16 27/23/16 25/21/16
f 10/8/29 24/22/29 26/24/29
f 14/12/21 12/10/21 26/24/21
f 14/12/30 2/28/30 4/13/30
f 18/25/31 16/27/31 28/26/31
f 14/12/21 28/26/21 16/27/21
f 4/13/15 2/28/15 16/27/15
f 13/11/32 4/13/32 18/25/32
